<?xml version="1.0" encoding="UTF-8" standalone="no"?>
<svg
   version="1.0"
   width="319"
   height="319"
   viewBox="0 0 239.25 239.25"
   preserveAspectRatio="xMidYMid meet"
   id="svg287"
   sodipodi:docname="2.svg"
   inkscape:version="1.1 (c68e22c387, 2021-05-23)"
   xmlns:inkscape="http://www.inkscape.org/namespaces/inkscape"
   xmlns:sodipodi="http://sodipodi.sourceforge.net/DTD/sodipodi-0.dtd"
   xmlns="http://www.w3.org/2000/svg"
   xmlns:svg="http://www.w3.org/2000/svg">
  <defs
     id="defs291" />
  <sodipodi:namedview
     id="namedview289"
     pagecolor="#ffffff"
     bordercolor="#666666"
     borderopacity="1.0"
     inkscape:pageshadow="2"
     inkscape:pageopacity="0.0"
     inkscape:pagecheckerboard="0"
     inkscape:document-units="px"
     showgrid="false"
     units="px"
     inkscape:showpageshadow="false"
     inkscape:zoom="1.0289025"
     inkscape:cx="337.7385"
     inkscape:cy="96.704982"
     inkscape:window-width="1366"
     inkscape:window-height="705"
     inkscape:window-x="-8"
     inkscape:window-y="-8"
     inkscape:window-maximized="1"
     inkscape:current-layer="g285" />
  <metadata
     id="metadata209">
Created by potrace 1.10, written by Peter Selinger 2001-2011
</metadata>
  <g
     transform="matrix(0.1,0,0,-0.1,0,900)"
     fill="#000000"
     stroke="none"
     id="g285"
     style="fill:#008000">
    <path
       d="m 1069.8705,8982.6359 c -4.2058,-0.5239 -19.7144,-2.3574 -34.1716,-3.9292 -92.78918,-9.9539 -230.52723,-47.9364 -319.37352,-88.0145 -76.22904,-34.3152 -165.86387,-86.181 -220.53854,-127.5687 -7.62292,-6.0248 -16.56006,-12.5735 -19.71438,-14.6692 -27.86309,-19.3841 -84.37773,-68.8923 -122.49224,-107.1366 -47.57745,-47.9367 -109.87499,-123.1157 -136.42374,-164.7655 -4.99431,-7.8583 -10.25149,-15.4549 -12.0915,-17.0266 -2.89148,-3.1433 -35.48596,-56.3189 -35.48596,-58.1524 0,-0.5239 -3.68002,-7.3346 -8.14863,-14.9311 -46.78887,-78.8463 -94.366313,-199.8663 -116.446449,-296.0014 -2.365739,-9.9539 -6.045784,-25.147 -8.148624,-34.0531 -7.885787,-34.5773 -13.668671,-73.0836 -17.348684,-118.6625 -3.680045,-47.6746 -1.840035,-256.4472 2.628575,-285.5235 7.09719,-44.5311 25.760175,-134.3794 31.54306,-150.6201 1.314307,-3.6673 4.468617,-13.6213 6.834323,-22.2657 58.354669,-207.2009 188.995519,-409.1628 358.013769,-554.0202 70.9719,-61.0338 110.40069,-88.8003 196.61836,-138.0465 122.49227,-70.4641 275.21325,-121.2821 416.63138,-139.0946 12.3542,-1.5715 37.0629,-4.715 55.2002,-7.0725 44.4232,-5.501 161.6582,-5.501 208.71,0 18.9258,2.3575 44.4231,5.239 56.7775,6.8106 22.0801,2.6196 30.2288,3.9293 68.3433,11.5258 20.2401,3.9292 79.3833,18.0744 93.3148,22.0036 4.4687,1.3097 14.4572,4.1911 22.343,6.2868 22.343,6.2867 85.1663,28.8142 114.3437,41.1258 49.9432,20.9559 158.241,78.0606 172.4353,90.6341 2.1029,2.0955 4.7315,3.6672 5.783,3.6672 3.1543,0 53.0975,34.8391 84.9034,59.2003 42.3202,32.4816 106.7207,90.6341 137.738,124.4253 29.966,32.4816 57.829,64.4393 63.0861,72.0357 2.1029,2.8815 14.7201,19.3842 27.6002,36.6727 13.1429,17.0268 27.3373,36.9347 32.0687,44.2693 14.9831,23.8372 38.6403,62.6056 43.3719,71.5119 2.6285,4.715 10.5143,18.8602 17.6114,31.4337 42.3203,76.2269 81.7491,179.9583 102.7779,269.0207 2.8914,13.0974 6.5714,27.7665 7.8858,32.7436 6.8343,26.4566 14.4571,74.1313 18.4,117.8765 3.943,42.1737 6.3086,53.9614 9.9887,52.9136 2.3657,-0.2619 3.1542,19.1222 3.1542,78.0605 0,58.9384 -0.7885,78.3225 -3.1542,77.7986 -3.6801,-0.7859 -6.0457,11.0018 -9.7259,51.8657 -4.2057,42.9595 -10.2515,82.5136 -17.3486,112.6377 -14.7201,63.6533 -21.8173,89.3243 -35.2231,129.6643 -23.6573,70.7259 -55.4632,142.7617 -90.1605,203.0098 -16.823,29.0762 -39.9546,68.1065 -41.5318,69.4161 -0.7886,0.7859 -6.0458,8.3824 -11.8286,17.0267 -58.0918,86.9668 -151.1439,187.8168 -235.2587,254.3516 -93.8406,74.1313 -181.6354,126.259 -289.1446,171.3141 -28.126,11.7876 -93.5778,34.5771 -120.9152,41.9116 -6.5715,1.8337 -14.7201,4.1912 -18.4,5.501 -5.783,1.8336 -18.1373,4.977 -69.6577,16.7646 -8.6743,2.0956 -26.2859,5.5009 -39.4288,7.5965 -12.8801,2.0957 -31.8059,5.239 -42.0574,7.0727 -17.3487,2.8813 -264.436,6.0247 -283.8876,3.4052 z m 237.0987,-103.2075 c 6.3086,-1.5717 21.8173,-3.9292 34.4345,-5.2389 79.1205,-8.6444 198.9841,-41.6498 275.2132,-75.965 5.7829,-2.6194 17.6116,-7.8585 26.2859,-11.7877 8.6743,-3.6672 17.6115,-7.8584 19.7144,-8.9062 125.1208,-64.7012 200.0356,-118.4005 289.4076,-206.939 79.6463,-79.3703 142.7324,-164.2414 191.6242,-258.2808 7.6228,-14.4072 14.72,-28.0284 15.7714,-30.124 1.3143,-2.0956 6.0458,-12.0496 10.5144,-22.2656 47.0517,-102.1598 70.9719,-188.0787 91.212,-324.8157 6.5715,-45.8408 6.5715,-198.8185 0,-242.3019 -2.6286,-16.5028 -6.5715,-41.9117 -8.6743,-56.3188 -11.5658,-75.965 -41.5317,-178.9106 -72.0234,-246.2313 -2.6286,-5.7628 -7.8857,-17.5504 -11.8286,-26.1948 -36.8002,-81.7278 -93.5778,-170.0043 -157.4525,-244.9214 -89.8977,-104.7793 -194.7784,-188.6027 -318.322,-254.0897 -32.5945,-17.2886 -33.1202,-17.5505 -49.9432,-24.8851 -8.6743,-3.9291 -20.503,-9.1681 -26.2859,-11.7876 -62.8233,-28.5523 -169.0182,-59.4622 -245.773,-71.7738 -84.6405,-13.3593 -82.012,-13.0974 -180.0583,-13.0974 -64.6633,0 -99.8864,1.3098 -111.7151,3.4053 -9.2,1.8337 -26.5487,4.4532 -38.1144,5.7629 -68.86906,7.5965 -192.14982,40.34 -256.28739,68.1064 -3.68001,1.5718 -9.98864,4.4532 -14.45724,6.2868 -12.35436,5.239 -44.16025,19.9081 -48.6289,22.2657 -2.10288,1.0478 -15.77152,8.3822 -30.22876,15.7168 -118.28646,61.2958 -226.32142,147.4768 -318.32204,254.0897 -57.30323,66.5348 -95.68061,124.6873 -147.20096,222.6559 -1.84,3.6672 -6.57145,13.6212 -10.2515,22.2655 -3.94288,8.6444 -9.20006,20.432 -11.82863,26.1948 -33.64593,74.9172 -67.55473,195.6753 -76.22906,272.4261 -1.3143,11.5257 -3.68005,28.5523 -5.52005,37.9824 -2.10287,11.2638 -3.15431,48.4605 -3.41718,110.0182 0,75.703 0.78861,98.4925 4.46861,123.1157 2.62859,16.5026 6.30863,41.9116 8.67434,56.3187 2.10286,14.4072 4.73147,30.386 6.04577,35.363 1.31428,4.9771 6.83433,27.5046 12.09151,49.7702 10.2515,42.4356 27.33731,96.3969 41.00595,130.7121 7.88579,19.908 11.30293,27.5045 24.44588,55.533 3.68004,8.1203 6.83434,15.193 6.83434,15.9788 0,2.3575 32.33164,61.0339 48.10318,87.2288 47.84031,79.3702 93.84061,138.0466 161.92103,205.8911 88.05771,87.7527 164.81248,142.4998 289.40757,206.939 2.10288,1.0478 11.04008,5.239 19.71443,8.9062 8.67435,3.9292 20.50296,9.1683 26.28591,11.7877 46.00027,20.6939 103.56638,39.8161 161.65816,53.6993 22.343,5.2391 44.94884,10.7399 49.9432,12.0497 10.25148,2.3575 47.05173,8.3823 81.48623,13.0974 12.3543,1.8336 36.5373,3.9292 53.886,5.239 40.4803,2.3575 177.4297,0.2619 192.4127,-2.8815 z"
       id="path211"
       style="fill:#008000;stroke-width:0.999998" />
    <path
       d="m 1089.5849,8846.4229 c -97.25774,-11.0018 -187.68117,-31.4338 -257.60157,-58.6763 -7.88582,-3.1434 -17.61156,-6.5487 -21.29156,-7.8585 -3.68006,-1.0478 -8.93725,-3.1433 -11.82867,-4.715 -2.62857,-1.3098 -9.46295,-4.4531 -14.72008,-6.8107 -21.29161,-9.1681 -28.12594,-12.3115 -58.61754,-27.2426 -37.32598,-18.0744 -61.50901,-31.1718 -67.29189,-36.1489 -2.10288,-2.0955 -4.99429,-3.6672 -6.04574,-3.6672 -6.83432,0 -108.03497,-73.6074 -142.20662,-103.2075 -23.92013,-20.9559 -85.1663,-81.9898 -105.4064,-105.0412 -29.96592,-34.3153 -103.5664,-135.1652 -103.5664,-141.7139 0,-1.0478 -1.57714,-3.9293 -3.68001,-6.0248 -11.30294,-13.3594 -59.93182,-113.4236 -79.1205,-162.6698 -2.36574,-6.5487 -5.78292,-14.6691 -7.09719,-18.3364 -12.35437,-30.6479 -39.16598,-129.6643 -42.84598,-158.4786 -1.05145,-7.0726 -3.41718,-22.0036 -5.25719,-32.7435 -11.5658,-61.8197 -14.19437,-195.6752 -5.78292,-276.0933 2.36575,-24.0992 4.99435,-45.0551 5.78292,-46.1028 0.78857,-1.0478 2.36571,-10.7399 3.94287,-21.2178 5.25719,-39.0303 29.96592,-132.2839 44.1603,-167.3849 1.31427,-3.6672 4.73145,-11.7876 7.09719,-18.3363 4.46857,-11.2638 6.04575,-15.4549 15.24582,-36.6728 4.99431,-11.5256 19.97725,-44.5311 22.60585,-49.7701 19.45153,-37.7205 33.1202,-63.1295 37.06309,-69.4163 2.89143,-4.1911 6.04575,-9.692 7.09718,-11.7876 4.20575,-9.4301 39.69168,-60.51 63.08612,-91.1579 32.85736,-43.2214 49.94318,-62.3437 91.47492,-103.9934 65.45181,-65.2251 105.1435,-96.3969 200.03553,-157.9547 2.62861,-1.5717 6.83437,-3.9293 8.9372,-4.9771 2.10287,-1.0477 8.67434,-4.715 14.19439,-8.1203 5.78288,-3.4054 25.76016,-13.8833 44.68599,-23.3133 33.12022,-16.2409 39.4288,-19.1223 61.50901,-28.5525 5.25713,-2.3574 12.09151,-5.5009 14.72008,-6.8106 2.89142,-1.5716 8.14861,-3.6673 11.82867,-4.7151 3.68,-1.3097 13.40574,-4.715 21.29156,-7.8584 45.47453,-17.8125 134.32083,-41.6498 174.53817,-47.1507 11.3029,-1.3097 21.5545,-3.1433 22.8688,-3.9292 6.0456,-3.9292 87.532,-9.954 146.938,-11.0019 74.1262,-1.5715 120.6523,1.8337 194.5156,14.1453 50.4689,8.1204 128.5379,27.7665 160.3439,40.0781 7.8857,3.1433 18.1372,6.8106 22.8687,8.1203 4.7314,1.3098 9.2,3.6674 9.9886,4.9771 1.0515,1.5716 3.9429,2.6194 6.8344,2.6194 2.6285,0 12.88,3.6674 22.6059,8.1205 9.9885,4.453 25.4972,11.5257 34.9602,15.9788 9.4629,4.1912 18.9258,8.9062 21.0287,10.216 2.1028,1.3097 8.1486,4.1911 13.1429,6.2866 9.2001,4.1913 57.5661,30.3861 66.7662,36.149 2.8914,1.5716 14.7201,9.1681 26.2859,16.5026 26.2858,16.5028 93.8405,67.0588 118.5493,88.5386 23.9201,20.9557 82.2748,79.1083 105.4064,105.303 33.9087,38.5064 97.2578,125.9971 110.6636,152.9778 1.0514,2.0955 6.5714,12.3115 12.6171,22.2655 5.783,10.216 12.8802,23.5753 15.7716,30.124 2.6286,6.5488 6.5714,13.6213 8.4115,15.9789 1.8401,2.0956 3.4171,5.501 3.4171,7.0725 0,1.8337 3.6801,10.4781 8.1487,19.3842 4.4686,9.1683 9.9886,20.6939 12.0915,25.6709 2.1028,4.9771 5.7829,12.3116 7.6229,16.2408 2.1029,3.6673 3.68,9.1682 3.68,12.0496 0,3.1434 1.0514,6.0248 2.6286,7.0726 1.3144,0.7859 3.68,5.239 4.9943,9.9541 1.3143,4.7151 4.9944,14.931 8.1486,22.7895 9.9887,25.9329 34.9603,120.2341 37.8517,144.0715 1.0514,7.8583 3.4171,22.7894 5.5201,32.7434 14.1943,71.5119 14.1943,243.3498 0,320.8864 -1.84,10.7399 -4.2058,24.8851 -4.9943,31.4338 -4.7315,35.101 -29.1774,124.1634 -46.2632,167.6468 -3.1543,7.8585 -6.5716,17.5505 -7.8858,21.2177 -1.0514,3.6673 -3.1543,8.9063 -4.7315,11.7878 -1.3142,2.6194 -4.4686,9.1681 -6.5714,14.1451 -18.1372,41.3878 -49.9432,103.9934 -65.7147,129.6643 -26.5487,42.9595 -75.7033,110.0182 -105.4064,144.0715 -20.7659,23.5753 -81.7491,84.6092 -105.4064,105.0412 -26.5487,23.0514 -80.6977,63.6533 -112.2408,84.0853 -36.0117,23.5753 -37.0631,24.0992 -41.5317,26.1948 -2.1028,1.0478 -8.1485,4.1912 -13.1429,7.3346 -4.9943,3.1433 -22.0801,12.3115 -38.1146,20.1699 -26.2858,13.3594 -35.4859,17.8125 -72.2861,33.7914 -6.5715,2.8813 -13.9315,6.2867 -16.2972,7.8584 -2.6286,1.3097 -6.8344,2.3575 -9.4629,2.3575 -2.6286,0 -5.7829,1.0478 -7.3601,2.3576 -4.9944,4.977 -62.8233,24.0992 -107.5093,35.3629 -48.1032,12.3117 -57.8289,14.4072 -79.9091,17.2886 -10.5144,1.5717 -20.2401,3.4054 -21.5544,4.1912 -1.3143,0.7858 -20.2401,3.1434 -42.3203,5.5009 -54.9375,5.7629 -179.2697,6.8107 -222.9043,1.8336 z m 187.6812,-8.9061 c 74.3891,-8.6444 94.1036,-11.2638 111.9779,-14.6692 42.3204,-8.6442 78.8577,-17.5505 94.6291,-23.3134 4.9944,-1.8336 16.2973,-5.2389 24.9717,-7.8584 8.6743,-2.3575 18.9258,-6.0248 22.8687,-8.1204 3.68,-2.0956 8.6743,-3.6673 10.7772,-3.6673 10.2515,0 129.0637,-54.4852 157.4525,-72.2976 5.5201,-3.4054 10.5143,-6.2868 11.5658,-6.2868 0.7886,0 6.8343,-3.4054 13.4057,-7.8585 6.3087,-4.1911 12.0915,-7.8583 12.6173,-7.8583 1.5772,0 48.6288,-31.9577 65.7147,-44.5312 19.7144,-14.6691 53.8861,-42.1737 68.0804,-54.4852 25.2345,-21.7417 99.0978,-98.2305 118.8122,-122.3298 29.4402,-36.4108 61.509,-80.418 61.509,-84.3473 0,-0.7859 3.68,-5.7629 7.8858,-11.2638 4.4686,-5.5008 7.8857,-10.4778 7.8857,-11.2637 0,-1.0478 3.1544,-6.0248 6.8343,-11.5257 3.6801,-5.5009 7.8858,-12.3115 9.2001,-15.1931 1.3143,-2.8813 4.9943,-9.4301 7.8858,-14.4071 6.5714,-10.7399 39.1659,-74.9171 39.1659,-77.2747 0,-0.7858 3.4172,-8.6443 7.623,-17.8124 13.1429,-28.0285 23.9201,-54.7472 23.9201,-58.6765 0,-2.0955 1.5772,-7.0725 3.68,-10.7398 2.103,-3.9291 5.783,-14.1452 8.1487,-22.7894 2.6286,-8.6444 6.3085,-19.6461 8.1486,-24.3612 2.1029,-4.7151 3.6799,-10.7399 3.6799,-13.6213 0,-2.8814 1.5772,-9.6921 3.6802,-14.9311 2.1028,-5.5009 5.52,-19.1221 7.8857,-30.386 2.3658,-11.0018 5.7829,-28.8143 8.1486,-39.2921 4.4687,-21.4798 9.9887,-63.9154 14.7201,-111.8519 3.4172,-37.4586 2.1029,-144.5954 -2.6286,-189.9124 -3.68,-35.1009 -10.5143,-82.5137 -12.3543,-85.6569 -0.7886,-1.3098 -2.6287,-10.2161 -3.9429,-19.9081 -2.6286,-17.8125 -3.6801,-22.5275 -11.303,-46.3649 -2.3656,-7.0725 -4.2058,-15.9788 -4.2058,-19.1221 0,-3.4054 -1.577,-9.4302 -3.6799,-13.0974 -1.8401,-3.9293 -6.0458,-14.6692 -8.9372,-24.0993 -7.0971,-21.7417 -13.1429,-39.0302 -16.0344,-45.8409 -1.3143,-2.8814 -8.4115,-19.9081 -16.0344,-37.9825 -19.9773,-47.6746 -54.1489,-114.9952 -67.2919,-132.8077 -3.4172,-4.453 -6.3086,-8.9062 -6.3086,-9.6921 0,-0.7858 -5.52,-9.4301 -12.3543,-19.1222 -6.5715,-9.954 -16.5602,-24.3611 -22.0802,-32.4815 -10.5143,-15.7169 -46.526,-61.2958 -63.8747,-80.942 -22.6058,-25.6709 -98.8349,-99.2783 -119.8636,-115.781 -12.3544,-9.6921 -23.3945,-18.5983 -24.9716,-19.9081 -24.7087,-19.3841 -83.852,-60.7719 -87.2692,-60.7719 -0.5256,0 -4.9943,-2.8815 -9.4629,-6.2868 -4.7314,-3.6673 -11.3029,-7.5965 -14.9829,-9.1682 -3.68,-1.5716 -10.7772,-5.5009 -15.7715,-8.3823 -19.1887,-11.5257 -71.2348,-36.4108 -110.4008,-52.6516 -42.583,-17.8125 -48.366,-19.9081 -76.229,-28.8143 -9.4629,-2.8814 -21.2916,-6.8106 -26.286,-8.6443 -36.8001,-13.0974 -118.8121,-29.0762 -182.6868,-35.6249 -44.686,-4.7151 -152.721,-6.0248 -191.887,-2.3575 -37.3259,3.4053 -100.6749,11.7877 -118.02358,15.7168 -5.78288,1.3098 -19.71437,4.4531 -30.4916,6.5488 -33.90877,7.3345 -104.35492,28.5523 -130.11514,39.2921 -4.20574,1.8337 -13.14289,5.2391 -19.71442,7.8585 -6.57142,2.3576 -19.18868,7.8585 -28.12588,12.0496 -9.20005,4.1912 -17.08581,7.5965 -17.8744,7.5965 -2.36572,0 -66.76614,32.4816 -77.54338,39.0303 -4.99429,2.8814 -12.09151,6.5487 -15.50862,8.1203 -7.88581,3.4054 -70.70905,45.0552 -90.94917,60.2482 -84.11484,63.3913 -159.29244,138.3085 -219.48713,218.7266 -12.88008,17.5505 -44.686,63.9153 -44.686,65.487 0,0.5239 -3.15431,5.501 -6.83433,11.0019 -3.68004,5.5009 -7.88578,12.3115 -9.20006,15.1929 -1.3143,2.8815 -4.99431,9.4302 -7.88578,14.4072 -6.57146,10.7398 -39.16595,74.9171 -39.16595,77.2746 0,0.7859 -3.41718,8.6444 -7.62293,17.8125 -4.20574,8.9063 -9.4629,21.2178 -11.82863,27.5046 -6.83431,17.8125 -12.61724,32.7435 -16.03438,41.1258 -1.57718,4.4532 -5.25718,14.9311 -7.88579,23.5753 -2.62858,8.6443 -6.04575,19.9081 -7.88576,24.8851 -7.62288,21.4798 -23.13156,88.2765 -27.86304,120.4962 -10.7772,75.1791 -13.66865,117.0907 -12.09151,187.2928 2.10288,94.3013 6.04576,130.4501 24.18304,213.4878 7.09719,33.5293 25.76014,96.1348 31.8059,107.9225 2.10287,3.6673 3.68003,8.3824 3.68003,10.4779 0,3.6673 12.35438,33.7914 25.23446,61.8198 3.41717,7.5965 6.30861,14.4071 6.30861,15.193 0,1.8337 32.33162,65.7489 38.90311,77.0127 2.89144,4.977 7.88575,13.8833 11.04007,19.6461 14.98294,27.5046 57.30322,87.2287 95.68061,134.9032 22.86872,28.2905 108.82354,113.1617 139.57804,137.7848 31.80594,25.409 87.26916,64.9631 109.61216,78.3224 2.36567,1.3098 12.6172,7.5965 22.34299,13.3594 38.37737,23.3133 130.64083,66.0109 176.90401,81.9898 43.37171,14.931 85.69198,27.2426 113.02927,33.0054 10.77723,2.3575 27.33734,5.7628 36.80023,7.8585 18.40015,3.9293 67.81755,10.4778 106.45785,14.1452 34.4345,3.1433 145.3609,3.4053 173.2239,0.262 z"
       id="path213"
       style="fill:#000000;stroke-width:0.999998" />
    <path
       d="m 1117.1851,8806.083 c -0.7886,-1.3098 -1.0514,-3.6673 0,-4.977 1.3143,-2.3576 6.5715,-25.409 20.7658,-93.7775 3.4171,-15.9787 7.0973,-30.3859 7.8859,-31.6957 2.3656,-3.9292 19.4514,-6.2868 24.4458,-3.6673 2.3658,1.5717 6.8343,11.7877 10.2515,24.3612 3.4172,12.0496 7.8857,28.5524 10.2515,36.4108 2.3657,7.8584 5.52,19.3842 7.0972,25.6709 1.3143,6.2868 3.9429,10.7399 5.2571,10.4779 3.68,-1.3097 11.0401,-22.7894 16.5601,-47.9365 2.6286,-11.5257 6.5715,-27.5046 8.9373,-35.3629 3.68,-12.5736 4.9943,-14.4072 11.8287,-15.193 14.1943,-1.5718 19.1886,1.3097 21.0286,11.7876 1.0514,5.5009 3.4172,15.193 5.2572,21.7417 2.1028,6.5486 5.52,19.3841 7.8858,28.8143 5.52,20.432 11.5658,42.9595 14.983,53.9613 4.7313,15.455 3.4171,19.3842 -6.5716,19.3842 -4.7315,0 -10.2515,-1.5718 -11.8287,-3.6673 -3.9428,-4.7151 -9.7257,-25.6709 -14.9828,-53.9614 -3.943,-22.0036 -9.2001,-32.4815 -13.9316,-27.5045 -2.1029,2.6194 -5.7829,15.9788 -16.0344,61.2959 -2.6285,12.0496 -5.2572,22.2655 -5.7829,22.5275 -0.5257,0.262 -6.3086,1.3098 -12.8801,2.0956 -9.7257,1.3097 -13.1429,0.7859 -16.2973,-2.8815 -3.68,-4.4531 -9.9885,-23.5753 -19.1886,-58.9383 -5.2572,-21.2178 -9.2001,-25.6709 -15.2458,-17.0266 -2.3657,3.1434 -4.2057,8.1204 -4.2057,11.0019 0,9.43 -11.0401,63.1295 -13.6687,66.5348 -3.1543,3.6672 -19.4516,4.1911 -21.8173,0.5239 z"
       id="path215"
       style="fill:#330080;stroke-width:0.999998" />
    <path
       d="m 1393.9754,8780.9359 c -14.1943,-4.453 -31.8058,-20.17 -37.5888,-34.0532 -7.0972,-17.0267 -9.9885,-41.1259 -6.8343,-56.5808 4.9943,-23.3133 19.1888,-36.9347 47.3146,-45.579 16.2973,-4.977 23.9202,-4.7151 40.7432,1.8337 22.3429,8.1204 35.223,26.7186 40.7431,57.6285 6.8343,39.8161 -11.0401,66.7969 -50.9946,77.2747 -15.5087,4.1912 -17.3488,4.1912 -33.3832,-0.5239 z m 34.9602,-22.0035 c 12.0916,-3.4054 23.1316,-15.1931 25.2346,-26.9808 4.2057,-26.7187 -7.623,-55.7949 -27.0746,-65.225 -12.3543,-6.0248 -16.0343,-6.0248 -30.2287,0.262 -17.6115,7.8583 -23.3944,17.2885 -23.3944,38.2443 0,19.3841 4.7315,33.0055 15.2458,44.2693 11.5657,12.0496 21.8172,14.4071 40.2173,9.4302 z"
       id="path217"
       style="fill:#330080;stroke-width:0.999998" />
    <path
       d="m 904.26951,8764.1713 c -10.77723,-2.0957 -22.343,-5.7629 -37.58882,-12.0496 -4.7315,-2.0957 -10.77723,-3.6674 -13.40581,-3.6674 -2.62862,0 -7.6229,-2.0955 -10.77722,-4.715 l -5.78289,-4.715 8.41145,-25.9329 c 4.73145,-14.4072 11.82867,-35.625 15.77152,-47.1506 3.94291,-11.5257 8.41151,-25.671 9.9887,-31.4338 1.57713,-5.7629 4.46854,-12.8355 6.57142,-15.455 3.15432,-4.4531 4.20575,-4.4531 13.14296,-0.5239 5.25719,2.0956 9.72579,4.7151 9.72579,5.7628 0,2.3576 -9.98864,34.0534 -13.66865,42.9595 -3.15432,8.1204 2.89141,13.0974 16.29721,13.0974 9.98864,0 19.45158,-5.2389 45.73743,-25.6708 13.14296,-10.478 15.50867,-11.2639 24.44588,-9.6921 19.18868,3.1434 19.45158,5.2389 2.36578,20.9559 -8.67441,7.5964 -20.76587,16.7646 -27.07451,19.9079 -6.30857,3.4054 -12.0915,7.0727 -12.88004,8.1205 -0.78859,1.3097 2.10282,5.5009 6.57147,9.6921 16.03437,14.931 16.82297,34.5771 2.10288,51.0798 -9.46294,10.478 -21.29162,13.3594 -39.95455,9.4302 z m 14.72008,-20.9559 c 2.62857,-1.5717 6.83433,-6.2868 9.20005,-10.7398 3.68001,-7.3346 3.68001,-8.6444 0,-14.4072 -5.2572,-7.8585 -14.45724,-12.5735 -33.90877,-17.5505 l -15.24583,-3.9292 -5.25719,11.7876 c -4.20575,10.216 -6.83432,24.3612 -4.20575,24.3612 0.52574,0 9.20009,2.8814 19.18873,6.5487 20.76581,7.3346 23.13154,7.5965 30.22876,3.9292 z"
       id="path219"
       style="fill:#330080;stroke-width:0.999998" />
    <path
       d="m 1576.6624,8729.5941 c -1.5772,-1.8336 -13.9316,-25.409 -27.863,-52.1277 -13.6687,-26.9806 -26.5488,-51.3418 -28.6517,-54.4851 -4.7314,-7.5965 0,-14.4072 10.2515,-15.455 7.3601,-0.7858 8.1487,0.2619 24.183,32.7435 8.9372,18.3364 17.3488,35.363 18.4002,37.4586 2.8914,4.977 10.7771,6.5487 10.7771,2.0955 0,-3.9292 -5.7828,-32.2195 -11.8285,-57.1046 -8.1487,-33.7913 -8.1487,-33.0054 1.0514,-37.9825 4.7314,-2.3575 10.5143,-3.4053 12.88,-2.6195 2.3657,0.7859 15.7716,14.4072 29.4402,30.386 37.8517,44.0073 48.8918,49.5082 30.4916,15.193 -22.8686,-42.4356 -30.4916,-57.8906 -30.4916,-61.2958 0,-4.1912 15.7715,-12.8355 18.663,-9.9541 2.8914,2.8814 58.6175,114.2094 58.8804,117.0908 0,2.8814 -24.7088,16.7647 -30.4916,17.0267 -2.1029,0.2619 -17.3488,-14.4072 -33.646,-32.4816 -16.2972,-18.0745 -30.7544,-31.9577 -32.3316,-31.1719 -2.8914,1.8337 -1.84,9.4301 5.52,40.34 3.1543,12.3116 6.3086,28.8144 7.0972,36.6728 l 1.5771,14.4071 -13.9315,6.5488 c -7.8857,3.6673 -14.7201,6.8106 -15.7715,7.3345 -0.7886,0.262 -2.8914,-0.7859 -4.2057,-2.6195 z"
       id="path221"
       style="fill:#330080;stroke-width:0.999998" />
    <path
       d="m 740.77125,8702.0896 c -3.41715,-2.0956 -6.04573,-6.2868 -6.04573,-9.1682 0,-2.8814 7.62292,-17.8125 16.82296,-33.2674 18.40014,-30.6479 30.49166,-53.4375 30.49166,-58.1525 0,-4.1911 -9.72579,-15.9788 -17.87445,-21.2177 -3.94286,-2.6196 -11.30292,-4.7152 -16.56011,-4.7152 -12.88006,0 -19.97722,8.1204 -45.47453,53.4375 -11.04009,19.646 -21.55447,35.6249 -22.86875,35.6249 -4.99434,0 -18.13725,-8.1204 -18.13725,-11.0018 0,-3.1434 33.90877,-62.0817 47.05173,-81.7278 10.51438,-15.7169 19.71442,-20.432 38.37735,-19.3842 28.12594,1.8337 55.98898,24.3612 58.3547,47.4126 1.31428,11.7876 -5.78289,27.7665 -32.06873,73.8693 -6.57154,11.5258 -13.40586,23.5754 -14.98299,26.9807 -3.41716,6.8107 -8.9372,7.0726 -17.08586,1.3098 z"
       id="path223"
       style="fill:#330080;stroke-width:0.999998" />
    <path
       d="m 1159.2425,8637.3883 c -1.3142,-0.5238 -20.2401,-2.3574 -42.0574,-4.1911 -64.1375,-4.715 -121.17788,-16.2407 -185.31545,-36.9347 -12.35437,-3.9292 -25.23447,-8.1204 -28.91448,-9.692 -3.68001,-1.3098 -11.82861,-4.7152 -18.40009,-7.0726 -11.30297,-4.4532 -91.73776,-43.4834 -99.88637,-48.4604 -2.10288,-1.3098 -13.4058,-8.1205 -24.97157,-14.9311 -24.97162,-14.6691 -60.72041,-39.2922 -77.28053,-53.1754 -6.57147,-5.5009 -22.08015,-18.5983 -34.43451,-28.8143 -29.70307,-25.1471 -68.86901,-65.4871 -96.20636,-99.5402 -12.35429,-15.1931 -23.92012,-29.3383 -25.7601,-31.6958 -14.19439,-17.0267 -59.40613,-89.5863 -59.40613,-95.3492 0,-1.8336 -1.05143,-4.1911 -2.36572,-5.2389 -2.89147,-1.5717 -33.38307,-63.6534 -41.00599,-82.5137 -2.36572,-6.5487 -5.78288,-14.669 -7.09716,-18.3364 -14.98298,-37.4585 -30.7545,-98.4924 -39.95455,-154.5493 -17.08586,-105.8269 -14.98299,-196.1991 7.88574,-311.7182 6.5715,-33.0055 25.76018,-95.873 39.69166,-129.6643 6.30863,-15.193 43.10887,-90.1101 48.10322,-98.2306 1.31428,-2.0956 8.14861,-13.3593 14.98292,-24.885 14.72014,-24.8851 40.21745,-61.8198 51.78322,-74.9172 4.46859,-4.977 12.88004,-14.931 18.66298,-22.0036 20.76581,-25.147 31.28014,-36.9347 49.68028,-55.0091 16.56012,-15.9789 27.6002,-25.9329 68.60618,-61.5578 7.36007,-6.5487 12.88006,-10.478 46.26319,-34.0533 54.93747,-39.0302 146.93808,-84.8711 208.70988,-104.2553 50.99462,-15.9788 59.66893,-18.0744 126.96074,-30.386 28.9145,-5.5009 104.8808,-12.0496 137.2123,-12.0496 87.0063,0 213.1786,22.7894 286.5162,51.8658 3.68,1.3096 11.8287,4.715 18.4002,7.0726 22.6058,8.9062 93.5777,44.2691 119.6008,59.986 30.2287,18.0745 65.1889,42.1737 82.5376,56.5809 46.2631,38.7682 59.669,50.8178 82.2748,73.8693 42.0574,42.6975 90.9492,105.827 116.7093,150.0962 4.2057,7.0726 8.9373,15.455 10.7772,18.3364 7.3601,12.5735 42.8461,85.1331 48.1032,98.2305 3.1544,7.8585 6.8343,17.2887 8.4115,20.9559 3.9429,9.954 16.2973,48.4604 22.6058,70.7259 15.5087,54.4853 29.4402,157.4309 29.4402,216.1072 0,79.1084 -17.3486,186.5071 -42.846,263.5199 -26.8116,80.6799 -85.4291,188.8645 -134.0579,246.755 -46.0004,54.7472 -79.3835,89.3243 -113.2922,117.0908 -22.8688,18.8602 -43.6346,35.625 -47.5775,38.7683 -1.3143,1.3098 -13.143,9.1682 -26.2859,18.0744 -20.7658,13.8833 -29.1773,19.1223 -55.2003,34.0533 -15.5087,8.9062 -91.7377,45.8409 -106.7207,51.6037 -68.3433,26.4568 -140.6295,43.4835 -219.2242,51.3419 -29.966,3.1433 -110.9265,6.0248 -115.658,4.1911 z m 97.2578,-13.3593 c 23.1316,-2.0955 53.3603,-5.5009 67.029,-7.5964 45.2118,-7.0726 121.7036,-25.409 127.4865,-30.648 1.3144,-1.3097 4.7315,-2.3575 7.8858,-2.3575 3.1543,0 7.8857,-1.8337 10.7773,-3.9292 2.6285,-2.0957 7.3599,-3.9293 10.5143,-3.9293 2.8914,0 7.6229,-1.8335 10.5143,-3.9292 2.6286,-2.0956 6.5715,-3.9292 8.4115,-3.9292 1.84,0 23.9202,-9.954 48.8918,-22.2656 89.372,-43.4834 154.2981,-90.1102 223.6929,-159.5264 43.1088,-42.9595 84.1147,-94.3013 113.0293,-140.4041 13.6686,-22.2656 52.3089,-96.135 61.246,-117.8767 2.1029,-4.977 5.52,-12.3116 7.623,-16.2407 1.84,-3.6674 3.4171,-9.1683 3.4171,-12.0497 0,-3.1434 1.0515,-6.0247 2.3658,-6.8106 2.3656,-1.5717 9.9886,-24.0992 17.3487,-51.3419 2.3656,-9.4301 5.52,-19.908 6.8343,-23.5753 11.0399,-31.9577 25.7602,-147.4767 26.023,-204.3195 0,-59.2002 -12.8801,-156.383 -28.9145,-214.7974 -1.3143,-4.977 -4.4686,-16.2408 -6.8344,-24.8851 -2.3656,-8.6444 -5.2571,-16.7647 -6.5714,-18.3364 -1.3143,-1.3097 -2.3657,-4.715 -2.3657,-7.8584 0,-3.1434 -1.84,-7.8584 -3.943,-10.7399 -2.1028,-2.6195 -3.9428,-7.3346 -3.9428,-10.4779 0,-2.8815 -1.84,-7.5965 -3.9429,-10.478 -2.1028,-2.6194 -3.9428,-6.5486 -3.9428,-8.3823 0,-5.7628 -38.1146,-81.9897 -55.9889,-111.8518 -64.1376,-108.1845 -169.0183,-214.0116 -273.8989,-276.0933 -46.2632,-27.2426 -108.8237,-57.8905 -147.201,-71.7738 -30.2288,-11.0018 -32.3317,-11.5257 -70.972,-21.2178 -44.686,-11.5257 -48.8917,-12.3115 -84.1148,-17.2885 -64.9261,-9.1682 -117.4979,-11.7877 -169.0182,-8.3824 -51.5204,3.6674 -99.3606,9.4302 -121.4408,14.9311 -7.8858,2.0955 -24.4458,6.0248 -36.80021,8.9062 -36.80023,8.6443 -70.44616,19.3841 -97.25775,30.9098 -4.99434,2.0957 -12.6172,5.5009 -17.08586,7.0727 -4.20569,1.8336 -25.49731,12.0496 -47.31456,22.7894 -83.32626,41.1259 -146.1495,86.4429 -214.22992,154.2875 -69.39477,68.8923 -115.92079,135.1652 -162.44681,231.0382 -8.9372,18.3364 -16.29721,34.3152 -16.29721,35.8869 0,1.3098 -1.57719,5.7628 -3.68001,9.954 -4.99435,9.6921 -16.03443,40.34 -19.97731,54.4852 -1.05145,4.4532 -4.20575,14.9311 -6.57147,23.5754 -2.36573,8.6442 -6.04575,23.8372 -8.14861,33.5293 -2.10288,9.954 -4.20575,18.8603 -4.73148,19.9081 -2.89145,4.4531 -12.09151,78.0604 -14.98295,120.496 -2.89144,39.5543 -2.89144,52.1278 1.05144,99.5403 6.57145,78.3226 14.19438,124.1635 28.12588,167.9088 2.89144,9.43 5.25719,18.8603 5.25719,20.9559 0,2.0955 1.84,7.3345 3.94288,11.5257 2.10288,3.9291 3.94285,8.9062 3.94285,11.0018 0,3.1433 2.62863,9.692 11.82868,31.1718 2.10287,4.4531 5.52003,12.5735 7.88575,18.3364 7.09723,17.0266 27.60019,58.6763 41.53169,83.8233 34.43456,62.6056 78.85765,120.4962 135.89805,176.815 55.20032,54.7472 107.77208,94.8251 168.75539,129.1405 62.2975,34.839 119.86359,59.986 169.01819,74.1312 41.53174,11.5257 83.58906,20.9558 111.71506,24.8851 77.2805,10.2159 128.8007,12.0496 190.5726,6.2867 z"
       id="path225"
       style="fill:#000000;stroke-width:0.999998" />
    <path
       d="m 1148.7282,8605.4306 c -44.686,-2.6193 -113.2923,-12.8353 -147.4638,-22.2655 -11.30291,-3.1433 -24.18302,-6.5487 -28.65162,-7.5965 -16.82295,-4.1912 -71.23474,-23.5753 -94.62918,-34.0532 -78.06907,-34.3153 -133.26944,-68.6304 -200.03558,-123.6395 -44.94884,-37.4586 -100.41207,-97.4447 -136.68661,-148.2627 -28.12587,-39.5542 -67.55473,-111.5898 -85.16628,-155.0732 -14.45723,-35.625 -25.7601,-67.3207 -28.91442,-81.2039 -1.31433,-4.9771 -4.7315,-18.5984 -7.88582,-30.1241 -5.52,-20.9558 -12.09148,-57.1046 -18.66293,-102.1597 -4.46862,-31.1718 -4.46862,-144.5953 0,-174.1955 7.88575,-52.3896 13.4058,-83.8233 18.66293,-103.4695 3.15432,-11.5257 6.57149,-24.3611 7.62292,-28.8142 11.82867,-45.3171 49.94319,-133.5936 78.06907,-181.0062 33.64597,-56.5808 78.85764,-114.7332 124.59508,-160.5742 60.45757,-60.248 139.31523,-116.8288 207.65856,-149.0485 43.37166,-20.1699 59.14323,-27.5044 65.71465,-29.6 3.68001,-1.0479 18.40015,-6.2868 32.85738,-11.5258 14.45724,-5.2389 30.49161,-10.4779 35.48595,-11.7876 4.99429,-1.0478 18.66299,-4.4531 29.9659,-7.5965 22.6058,-6.2868 47.8403,-11.0018 94.1034,-17.5506 37.8517,-5.5009 150.0924,-6.2867 184.7898,-1.3097 46.2631,6.8106 81.7491,13.0974 102.515,18.5983 11.5657,3.1434 24.7086,6.5487 28.9144,7.5965 24.9716,6.5487 82.2749,28.2904 117.235,44.2693 163.4982,75.9649 300.9734,210.6062 376.9396,369.0848 6.8344,14.1452 13.143,27.5045 14.1945,29.6001 7.0971,13.8833 33.3831,84.0853 37.3259,99.5403 1.0514,4.977 3.9429,16.2408 6.0457,24.8851 2.1029,8.6442 4.9943,20.432 6.5715,26.1948 3.1543,12.5735 9.2,48.7224 13.6687,81.2039 4.4686,31.4337 4.2057,144.8573 0,175.5052 -6.5715,45.3171 -13.143,81.4659 -18.663,102.1597 -3.1544,11.5257 -6.5715,25.147 -7.8858,30.1241 -1.3143,4.977 -6.5715,20.9558 -11.8287,35.363 -5.2571,14.4071 -10.5143,29.0762 -11.5657,32.7434 -2.1029,6.5488 -12.8801,30.1241 -31.0173,68.1066 -18.9259,39.2922 -50.9947,89.8482 -82.5377,130.1882 -51.5204,65.7489 -107.5093,118.1386 -178.4812,167.3848 -36.0116,24.8851 -44.686,30.124 -88.0577,52.1276 -43.3717,21.7418 -111.9779,49.2464 -141.9438,56.3189 -4.2058,1.0478 -17.3487,4.7152 -28.9144,7.8585 -57.5661,15.7169 -166.3898,25.9329 -233.9444,22.0035 z m 140.1037,-397.3751 c 55.2004,-55.2711 100.4121,-101.8978 100.4121,-103.7315 0,-4.1911 -8.9372,-1.5717 -19.1887,5.5009 -19.9772,14.1453 -70.709,34.5772 -105.6693,42.6976 -42.0574,9.692 -119.6007,10.2159 -158.2409,0.7858 -39.9546,-9.4302 -70.972,-22.0037 -117.23504,-47.6745 -6.83438,-3.6673 -13.14296,-6.8107 -13.93155,-6.8107 -3.94291,0 16.03442,20.9558 104.61779,110.2802 61.2461,61.5578 100.1492,98.7544 103.3036,99.0163 3.6799,0.262 36.2745,-30.3859 105.932,-100.0641 z M 876.66932,7998.7589 c -0.2629,-1.8336 -3.15432,-8.1204 -6.57148,-13.8832 -8.4115,-13.3594 -20.24017,-37.4586 -28.65162,-57.6285 -24.97157,-61.0339 -31.01736,-146.9529 -14.72008,-216.1072 9.20004,-37.9825 29.96586,-86.4429 51.25746,-117.8767 22.60585,-34.0533 76.75479,-89.0624 87.53202,-89.0624 3.94286,0 44.68598,41.6498 123.80648,126.783 66.2404,70.9878 90.6862,95.8729 94.3664,95.8729 2.1028,0 6.3085,-2.6194 9.4628,-5.7628 3.1543,-3.4053 11.5658,-11.2638 18.9259,-17.8125 11.04,-10.4779 83.8519,-77.5366 92.0005,-85.1331 1.5772,-1.3098 15.2459,-13.8833 30.2289,-27.5046 14.9828,-13.6212 36.2744,-33.2674 47.0516,-43.2214 10.7773,-10.216 23.1316,-21.4797 27.3374,-25.409 l 7.8857,-7.0725 6.8343,4.9769 c 12.8802,9.1682 48.629,48.4604 62.5605,69.1544 7.36,11.0018 13.6687,20.6938 13.6687,21.2177 0,0.7859 2.8914,6.0248 6.3086,11.2638 6.5714,10.478 21.2916,43.2214 25.4973,56.8427 14.9829,47.9365 19.1887,81.2039 17.3487,132.8077 -1.84,49.2462 -10.5145,90.3721 -26.8116,126.521 -3.1544,7.3345 -6.5715,14.931 -7.6229,17.0266 -0.7886,2.0956 -2.6286,5.7628 -4.2058,7.8584 -7.8858,12.3115 -18.4002,32.2197 -18.4002,35.363 0,4.715 4.2057,4.977 7.0973,0.7858 1.3142,-1.8336 51.5202,-52.1277 111.7149,-111.8518 l 109.0864,-108.1845 50.2061,0.2619 c 32.0688,0.262 52.3089,-0.5239 55.7261,-2.3576 4.2057,-2.3575 5.2571,-5.5009 5.2571,-16.2407 0,-13.6213 -5.7828,-61.2958 -10.7771,-89.8483 -10.7773,-62.0816 -36.8003,-139.3563 -60.7205,-180.2202 -3.9428,-6.8106 -7.36,-13.0974 -7.36,-13.8832 0,-0.5239 -7.36,-13.0974 -16.2972,-28.0286 -67.029,-110.804 -173.224,-203.5336 -289.9334,-253.8275 -48.1031,-20.694 -77.8061,-29.8622 -145.8866,-45.3171 -29.4402,-6.5487 -103.5664,-12.5735 -135.3723,-10.7398 -55.4632,3.1432 -88.8463,8.1203 -138.0009,19.9079 -21.2915,5.2391 -27.60011,7.3346 -58.61752,18.5984 -11.30291,4.1912 -21.81724,7.5965 -23.39443,7.5965 -1.31423,0 -18.40009,7.5964 -37.85167,17.0266 -104.35492,50.294 -189.25837,122.3298 -256.28735,217.4169 -52.83461,75.1791 -94.89203,181.2681 -105.14351,266.6632 -1.31435,11.5257 -3.68001,25.6709 -4.99434,31.4338 -1.31429,6.0248 -2.62857,21.2177 -2.62857,33.7912 0,20.432 0.52569,23.0515 5.52003,25.6709 3.68001,2.0957 22.0801,2.6196 54.93747,2.0957 l 49.4175,-0.7859 111.18929,111.5899 c 61.24611,61.5578 113.02928,111.8519 114.8693,112.1138 1.57713,0.262 3.15432,-1.3098 3.15432,-2.8815 z"
       id="path227"
       style="fill:#008000;stroke-width:0.999998" />
    <path
       d="m 649.03354,7765.1013 c -2.89147,-7.5965 4.4686,-70.4641 11.30292,-97.1828 11.56582,-45.317 12.35436,-47.6746 28.38879,-86.4428 30.4916,-73.3455 67.02898,-127.3069 121.17787,-179.4345 52.83466,-50.8179 92.52636,-77.2747 165.33824,-110.0182 22.08014,-9.9541 29.70304,-13.0974 32.06874,-13.0974 1.3143,0 11.5659,-3.1434 23.1316,-7.0726 23.3945,-7.5965 29.9659,-8.9062 78.8576,-16.5027 72.812,-11.0018 163.4982,-4.1913 231.3159,17.5505 91.212,29.0762 173.7497,80.4181 233.1557,145.1192 59.1432,64.1773 92.7892,121.282 120.3893,204.0575 16.0344,47.9365 30.4917,140.4042 22.343,143.2857 -1.5771,0.5239 -79.3833,-75.1791 -172.6981,-168.1707 -93.3151,-92.9916 -171.647,-168.9564 -174.0126,-168.9564 -3.943,0 -4.9944,2.6194 -8.1487,21.7416 -8.4114,51.6038 -44.686,99.2783 -93.3148,122.8536 -30.4917,14.6691 -38.1146,16.2409 -76.2292,16.2409 -36.8001,0.2619 -50.4688,-2.8815 -78.5947,-17.0267 -33.1202,-16.5027 -62.5605,-46.1028 -78.0692,-78.5844 -8.1485,-16.5027 -16.8229,-52.1276 -16.8229,-68.3685 0,-18.0744 -5.7828,-16.5027 -29.4401,7.8585 -11.04008,11.0018 -91.47492,91.4198 -179.26978,178.6486 -126.17222,125.4732 -159.2924,157.1688 -160.86958,153.5016 z"
       id="path229"
       style="fill:#008000;stroke-width:0.999998" />
    <path
       d="m 1763.555,8623.2432 c -2.3658,-1.5717 -39.4288,-48.7223 -48.366,-61.8197 -2.1028,-2.8815 -8.9372,-12.3116 -14.9829,-20.432 -6.3087,-8.1204 -11.303,-17.0266 -11.303,-19.6461 0,-3.1434 11.303,-13.3594 32.5945,-29.0762 17.8744,-13.3594 33.9088,-25.9329 35.7488,-28.0285 4.4686,-5.501 12.3543,-4.977 15.7715,1.0478 4.2058,8.1204 3.4172,9.4301 -12.3543,21.4798 -8.4115,6.2867 -16.5601,12.8354 -18.4002,14.1451 -1.5771,1.5717 -7.36,5.501 -12.3543,9.1682 -5.2572,3.6673 -9.463,8.6444 -9.463,11.5257 0,3.9292 7.8858,16.2407 18.6631,28.8143 1.5771,1.8337 22.08,-11.0018 46.0002,-29.0762 4.4686,-3.1434 9.2001,-6.0248 10.7773,-6.0248 3.68,0 12.0915,9.6921 10.5143,12.3115 -0.7886,1.0478 -9.9886,8.6444 -20.2402,16.5027 -10.5143,7.8585 -22.08,17.0267 -25.4972,20.432 l -6.3087,5.7629 7.3601,10.4779 c 3.9429,5.7629 9.4629,11.0018 11.8287,11.7877 2.8914,1.0477 12.3543,-4.4532 27.6002,-15.9789 12.6171,-9.692 24.4458,-19.1222 26.5487,-20.9558 1.84,-2.0956 4.4686,-3.6673 5.7828,-3.6673 2.3658,0 10.5144,11.7876 10.5144,15.193 0,2.6194 -68.3433,54.7472 -74.3891,56.8427 -1.8399,0.7858 -4.4686,0.2619 -6.0457,-0.7858 z"
       id="path231"
       style="fill:#330080;stroke-width:0.999998" />
    <path
       d="m 567.81016,8583.689 c -19.18869,-4.977 -37.06307,-19.6461 -46.52601,-37.9825 -12.88006,-25.147 -3.41717,-58.6763 23.13158,-82.5135 16.29726,-14.4072 37.58882,-22.7896 49.94318,-19.6462 35.22305,8.6443 61.24611,36.9347 61.50895,66.5348 0,22.7895 -22.60584,56.8428 -45.47458,68.3685 -11.56577,6.0248 -31.01735,8.3824 -42.58312,5.2389 z m 28.65163,-26.7187 c 12.61721,-6.2868 26.023,-22.7895 32.33163,-39.5541 4.20576,-11.5257 4.20576,-12.5736 -0.52575,-23.0514 -9.20004,-20.694 -28.38872,-29.8622 -48.62884,-23.8374 -11.82867,3.4054 -29.17732,21.7418 -37.32598,39.0303 -4.73144,9.692 -4.99429,12.8355 -2.36571,21.2179 3.67999,13.0974 11.04006,22.0035 21.81729,27.2425 11.82861,5.7628 21.81725,5.5009 34.69736,-1.0478 z"
       id="path233"
       style="fill:#330080;stroke-width:0.999998" />
    <path
       d="m 1901.293,8499.0798 c -3.4171,-2.8815 -18.9258,-16.2408 -34.9603,-29.8621 -39.4287,-33.2674 -56.5145,-49.2462 -56.5145,-52.3897 0,-1.5716 2.8914,-5.5008 6.3085,-8.6442 7.0972,-6.5487 8.4116,-6.2867 22.6059,6.5487 25.7602,23.3134 43.6346,37.7205 47.0518,37.7205 2.6285,0 3.1543,-2.3575 1.5772,-9.692 -1.8401,-10.216 -14.983,-52.9135 -21.2917,-69.6783 -2.1027,-5.2389 -3.68,-11.5257 -3.68,-13.8831 0,-5.763 10.7772,-19.3842 15.7715,-19.3842 2.103,0 9.4629,4.977 15.7716,11.2637 6.5714,6.0248 28.1259,25.1471 48.1031,42.1737 19.7144,17.0266 36.0117,31.6957 36.0117,32.4816 0,1.0478 -2.8914,5.2389 -6.3086,9.4301 l -6.0457,7.8584 -30.7545,-26.7187 c -36.5374,-31.6957 -42.3203,-33.5293 -36.0117,-12.5736 9.2001,30.1241 19.7144,62.0818 23.1316,70.2022 3.9429,9.1681 3.6801,10.2159 -1.5772,18.5983 -7.36,11.7877 -11.5658,13.3594 -19.1887,6.5487 z"
       id="path235"
       style="fill:#330080;stroke-width:0.999998" />
    <path
       d="m 427.7064,8443.5468 c -4.99429,-1.8337 -12.09152,-6.8106 -16.03438,-11.0018 -11.04006,-12.0496 -42.3203,-53.1755 -42.3203,-55.7949 0,-2.0957 14.45725,-14.9311 27.60019,-24.3612 1.31431,-1.3098 7.36005,-6.0248 13.4058,-10.74 26.81164,-21.4797 60.72041,-46.3647 63.34897,-46.3647 2.36578,0 39.95455,48.1984 51.52037,66.0109 5.78289,9.1682 5.78289,15.7169 -0.78859,28.0285 -8.41145,16.5027 -16.82296,21.4797 -34.9602,20.9558 -15.24584,-0.5239 -19.97727,1.8336 -20.24018,9.954 0,8.1204 -7.09717,17.2886 -16.82296,22.0036 -11.82861,5.501 -12.61721,5.501 -24.70872,1.3098 z m 22.08015,-29.0762 c 2.89147,-4.1912 3.68001,-8.9063 2.36573,-13.6213 -1.84004,-7.3346 -14.19439,-24.8851 -22.8687,-32.7436 -4.99434,-4.453 -5.78293,-4.1911 -16.56012,3.9292 -11.82868,8.6444 -14.45724,14.4072 -8.4115,20.694 1.57718,1.8336 7.62293,8.9062 13.14296,15.9788 8.41146,10.216 11.56577,12.3115 18.92584,12.3115 6.83432,0 10.25148,-1.5716 13.40579,-6.5486 z m 52.04601,-35.625 c 4.20576,-7.3346 4.20576,-7.8584 -2.10282,-18.5983 -3.68006,-6.2868 -11.30292,-16.5027 -17.34871,-22.7895 l -10.51432,-11.2637 -12.35437,9.1681 c -16.03442,11.7877 -18.92583,16.2409 -13.66869,20.6939 2.10287,1.8337 8.4115,9.1682 14.19438,16.2408 16.82297,21.2178 31.80595,23.5754 41.79453,6.5487 z"
       id="path237"
       style="fill:#330080;stroke-width:0.999998" />
    <path
       d="m 2004.8594,8348.7216 c -14.4572,-12.5736 -17.0858,-19.9081 -8.6744,-24.3612 8.9373,-4.715 39.6917,9.1683 39.6917,18.0744 0,5.5009 -9.7257,18.3364 -13.9314,18.3364 -1.8401,0 -9.463,-5.5009 -17.0859,-12.0496 z"
       id="path239"
       style="fill:#220055;stroke-width:0.999998" />
    <path
       d="m 325.71716,8290.0452 c -8.67432,-3.4053 -19.45155,-18.3363 -36.2745,-50.0321 -10.2515,-19.6461 -14.72011,-30.3859 -13.14294,-32.7435 1.31428,-1.8337 14.72007,-9.692 29.96589,-17.5505 15.24581,-7.8585 40.21742,-20.694 55.46323,-29.0762 15.24581,-8.1204 28.65161,-14.6691 29.44019,-14.6691 2.89144,0 10.25149,16.2407 8.67432,19.6461 -0.5257,1.8337 -10.7772,8.3824 -22.34299,14.4072 -23.39444,12.0496 -25.76015,16.7646 -15.77152,28.5523 5.52002,6.8107 16.56011,9.692 48.36601,12.3115 10.25148,1.0478 20.50296,2.8814 22.86874,4.1912 3.94286,1.8336 15.24578,19.908 15.24578,24.3612 0,2.3575 -16.29721,1.3097 -40.7431,-2.6195 -33.9088,-5.5009 -33.12023,-5.7628 -31.54305,6.0248 3.68,24.6231 -26.28589,46.8887 -50.20606,37.1966 z m 21.55444,-26.4567 c 12.61723,-7.5966 12.61723,-13.8833 0.26287,-39.5542 -4.73148,-9.6921 -9.98864,-18.0744 -11.56581,-18.8602 -3.94287,-1.5717 -29.70305,11.2638 -31.54305,15.7168 -1.84001,4.7151 14.98294,34.8391 23.6573,41.9117 9.20006,7.5965 8.41149,7.5965 19.18869,0.7859 z"
       id="path241"
       style="fill:#330080;stroke-width:0.999998" />
    <path
       d="m 2038.5053,8259.6593 c -16.56,-14.1452 -18.1372,-23.8373 -10.7771,-66.011 3.1543,-17.0266 0.2628,-25.9328 -8.9372,-28.2904 -9.9887,-2.6195 -17.8745,0.5239 -24.7088,9.6921 -8.9371,12.0496 -10.2515,26.9806 -3.1543,36.4107 6.8343,9.4302 7.0972,18.5983 0.5258,24.6232 -6.8344,6.2867 -14.1945,2.0956 -21.2917,-11.5258 -7.3599,-14.407 -6.8343,-33.0053 1.3144,-50.2939 15.7715,-32.4816 37.3259,-43.4834 61.2461,-31.1718 20.503,10.4779 23.6572,20.4318 18.9258,61.5578 -2.3657,20.1699 -2.3657,28.8142 -0.2629,32.7434 4.7315,8.3824 14.1945,6.8107 23.6573,-3.6672 6.3086,-7.3346 8.1487,-11.7877 8.1487,-20.6939 0,-7.0726 -1.5771,-12.5736 -3.9429,-14.6691 -5.2572,-4.4531 -4.7315,-10.478 1.3142,-18.0744 6.3087,-7.3346 11.303,-6.0248 18.4002,5.5009 12.8801,21.2178 -1.3143,64.9631 -25.4973,77.7986 -10.2515,5.2389 -25.7602,3.6672 -34.9603,-3.9292 z"
       id="path243"
       style="fill:#330080;stroke-width:0.999998" />
    <path
       d="m 336.4944,8092.2744 c -14.45724,-1.8337 -40.48029,-4.715 -57.82897,-6.5487 -17.34869,-1.5717 -34.9602,-3.6672 -38.90311,-4.4531 -7.88576,-1.5717 -14.98294,-12.0496 -14.98294,-21.7417 0,-5.5009 12.09149,-18.0744 17.34868,-18.3364 1.57717,0 4.73147,-1.8336 6.57148,-4.1911 7.62289,-9.1682 87.26912,-66.7968 90.6863,-65.4871 1.84,0.7859 4.20574,5.7629 5.25718,11.0019 1.57713,8.6442 1.05144,10.4779 -4.99431,14.669 -19.45156,14.1452 -18.92586,13.3594 -15.77155,27.2427 9.20006,39.0303 13.14295,45.5789 27.33731,45.5789 13.14294,0 19.9773,4.1912 21.8173,13.3593 1.05144,5.7629 0.5257,9.1683 -1.57716,10.74 -3.94289,2.3575 -1.31428,2.3575 -34.96021,-1.8337 z m -27.86305,-28.5524 c 4.46862,-5.239 1.05144,-21.4797 -6.04575,-29.3381 l -5.52006,-6.5487 -17.87438,13.6213 c -23.6573,17.5505 -22.86873,21.4797 3.41715,23.5753 10.77723,0.7858 20.50299,1.5717 21.29159,1.8336 1.05143,0.262 3.15427,-1.0478 4.73145,-3.1434 z"
       id="path245"
       style="fill:#330080;stroke-width:0.999998" />
    <path
       d="m 2150.2204,8005.5696 c -8.6744,-1.8337 -29.966,-5.239 -47.3147,-7.8585 -34.9602,-4.715 -45.2116,-9.1681 -54.1489,-23.5753 -4.9942,-8.1204 -5.5199,-11.7876 -4.4685,-31.9577 1.5771,-24.6231 5.7829,-36.1488 16.8229,-44.7931 12.3544,-9.6921 25.2345,-9.4301 110.1379,1.8337 l 13.1429,1.8336 v 11.7877 11.7876 l -17.0858,-0.7858 c -9.463,-0.524 -25.2344,-2.6195 -35.4859,-4.7151 -9.9887,-1.8336 -26.2859,-3.6672 -36.0117,-3.9292 -14.4573,-0.2619 -18.4001,0.5238 -23.6573,5.239 -5.2572,4.977 -6.0457,8.3822 -6.0457,22.7895 0,25.6709 0.7885,26.1948 75.9662,36.4107 15.5086,2.0956 29.4402,4.715 30.7544,5.5009 1.3143,0.7859 2.3657,5.5009 2.3657,10.216 0,12.0497 -5.2571,14.4071 -24.9715,10.216 z"
       id="path247"
       style="fill:#330080;stroke-width:0.999998" />
    <path
       d="m 200.3335,7920.6985 c -2.89144,-14.4072 0.26287,-16.7648 27.60019,-19.6462 l 24.44587,-2.6195 -0.78858,-24.6231 c -0.26287,-13.6213 -2.10287,-26.4567 -3.68003,-28.5523 -2.36572,-2.6196 -9.20003,-3.4053 -28.12589,-2.6196 l -24.97157,0.7859 -1.57717,-8.3823 c -1.05144,-4.4532 -1.05144,-9.4302 -0.26287,-10.7399 0.7886,-1.3097 8.14862,-3.1434 16.03441,-4.1912 7.88575,-0.7858 20.50299,-2.6195 27.60017,-4.1911 7.36004,-1.3097 24.18301,-2.3576 37.58882,-2.3576 13.40581,-0.2619 29.70305,-1.5717 36.2745,-3.1433 14.72011,-3.6673 19.45156,-0.5239 19.45156,13.3592 v 9.6922 l -16.03438,1.8337 c -8.9372,0.7857 -20.76585,1.5716 -26.28587,1.5716 -16.03442,0 -19.18873,5.2389 -17.34869,29.6002 1.05143,11.5257 3.15428,22.5275 4.99431,24.6231 2.62858,3.4053 8.41147,3.9292 30.49162,2.8814 23.92014,-1.0478 27.33732,-0.7859 29.70306,3.4053 3.68001,7.3346 2.89144,14.9311 -2.10287,17.5506 -4.20575,2.3575 -32.5945,5.5009 -83.58911,9.692 -8.67436,0.5239 -22.86874,1.8337 -31.80592,2.8815 l -16.03439,1.5716 z"
       id="path249"
       style="fill:#330080;stroke-width:0.999998" />
    <path
       d="m 2059.2713,7816.967 c -1.3144,-1.8337 -2.8916,-6.5487 -3.1544,-10.478 -0.7886,-9.1681 3.68,-10.2159 44.686,-12.8355 34.6973,-2.0955 41.2689,-3.9291 34.9602,-10.2159 -2.1028,-2.0956 -20.5029,-12.3116 -40.7431,-22.7894 -20.2401,-10.2161 -38.3773,-19.9081 -40.2174,-21.4799 -2.1029,-1.5717 -3.1543,-7.0725 -2.6286,-14.669 l 0.7886,-12.0496 14.4572,-0.5239 c 7.8858,-0.5239 36.8003,-2.6195 64.1376,-4.9771 31.543,-2.6194 50.4689,-3.1433 52.0461,-1.5716 1.3143,1.3097 2.1027,6.5487 1.5771,11.2638 l -0.7886,8.9062 -39.9545,3.9292 c -22.0802,2.3575 -41.2688,5.239 -42.846,6.8107 -1.84,1.8335 12.3543,10.2159 43.1088,25.409 l 45.7375,22.7894 1.84,12.3116 c 1.3143,8.6442 0.7886,12.5735 -1.84,14.1452 -1.84,1.3097 -16.2973,2.3575 -31.806,2.3575 -15.7714,0 -36.2745,1.0478 -46.0002,2.3576 -30.2289,4.453 -50.469,4.715 -53.3603,1.3097 z"
       id="path251"
       style="fill:#330080;stroke-width:0.999998" />
    <path
       d="m 264.73392,7650.63 c -21.81729,-6.8107 -42.32026,-25.671 -42.84599,-39.2923 -0.78857,-19.1222 1.05144,-37.9825 4.46861,-49.2462 2.10288,-6.5487 3.68002,-14.4072 3.68002,-17.5505 0,-2.8815 1.57713,-7.5965 3.68001,-10.216 3.68003,-5.239 -0.26283,-5.7629 56.77752,7.8584 7.88577,2.0956 19.7144,4.1912 26.28589,5.239 6.57148,0.7858 15.50867,2.6195 19.71442,3.9293 4.46857,1.3096 12.0915,2.8813 17.61152,3.6672 5.25718,1.0478 9.98866,3.4053 10.77723,5.2389 1.84001,4.715 -11.82867,61.0339 -17.34868,71.5119 -11.82868,22.5275 -46.26318,30.386 -82.80055,18.8603 z m 56.7775,-23.3135 c 4.73148,-2.8814 8.93722,-6.8106 9.46293,-8.6442 0.52574,-1.5717 2.89144,-8.9063 5.25718,-16.2409 6.30862,-19.1222 5.52002,-24.3611 -2.89144,-26.4567 -4.20575,-0.7858 -9.98863,-2.6195 -13.40581,-3.9292 -3.41718,-1.3097 -9.46293,-2.3575 -13.40581,-2.3575 -4.20574,0 -12.0915,-1.5717 -17.61154,-3.6673 -5.78289,-1.8336 -16.29725,-4.4531 -23.65731,-5.239 -15.77151,-2.3575 -17.34867,-1.0478 -21.81726,19.9081 -5.52004,25.409 4.99432,39.8161 34.17164,47.6745 19.97729,5.5009 33.64592,4.977 43.89742,-1.0478 z"
       id="path253"
       style="fill:#330080;stroke-width:0.999998" />
    <path
       d="m 2037.4539,7646.7007 c -2.6286,-6.5487 -1.84,-15.4549 1.5772,-18.8603 1.84,-1.8335 7.36,-3.1433 12.6172,-3.1433 4.9944,0 13.4058,-1.3098 18.4001,-2.6196 4.9943,-1.5716 16.2973,-3.9291 24.9716,-5.2389 8.6743,-1.3097 26.5488,-4.4531 39.4288,-6.5487 34.9603,-6.0248 33.3832,-6.2868 35.7488,2.6196 3.4172,11.7876 0.7886,16.2407 -10.2514,17.8124 -18.4002,2.6194 -59.669,9.692 -86.4806,14.931 -32.3316,6.2867 -33.9088,6.2867 -36.0117,1.0478 z"
       id="path255"
       style="fill:#330080;stroke-width:0.999998" />
    <path
       d="m 2076.357,7538.2542 c -34.9602,-1.0478 -64.6633,-2.6195 -66.2403,-3.6673 -1.8401,-1.0477 -4.4687,-6.5487 -6.0459,-12.3116 -3.1543,-10.2159 -3.1543,-10.4779 6.8343,-20.6938 5.783,-5.7628 11.5659,-10.478 12.8801,-10.478 1.3144,0 5.5201,-2.8814 9.2001,-6.2868 10.2516,-9.43 76.492,-59.2002 78.8577,-59.2002 2.6286,0 8.1486,12.0496 8.1486,17.8125 0,2.8815 -12.6173,14.1452 -32.0687,28.5524 -41.5318,30.9098 -51.2576,39.5541 -46.5261,41.3877 2.1028,0.7859 26.023,1.5718 53.3604,1.8337 l 49.4174,0.7857 4.2057,10.2161 c 3.4172,8.3823 3.4172,10.2159 0.2629,12.3116 -2.1029,1.3097 -4.7314,2.0955 -6.3086,1.8335 -1.3143,-0.2618 -31.2802,-1.0477 -65.9776,-2.0955 z"
       id="path257"
       style="fill:#330080;stroke-width:0.999998" />
    <path
       d="m 344.38015,7479.0539 c -20.24012,-9.4301 -41.53168,-19.1221 -47.31461,-21.7416 -5.78288,-2.8815 -13.14293,-5.7629 -16.03437,-6.5487 -3.15431,-1.0478 -7.62292,-3.9292 -10.2515,-6.8107 -4.20575,-4.7151 -4.46861,-5.5009 -0.26287,-11.7877 5.25719,-7.8584 7.36006,-8.1204 21.02873,-1.5717 47.05174,22.5276 62.03469,27.5046 62.03469,21.2178 0,-1.5717 -7.36007,-13.3593 -16.29725,-26.4567 -9.20006,-12.8355 -18.40012,-26.4568 -20.50299,-29.8621 -2.10288,-3.4053 -7.36006,-11.0018 -11.30294,-16.5027 -7.09718,-9.9541 -7.36005,-10.74 -3.68,-19.6461 2.10286,-4.977 5.25713,-9.6922 6.57144,-10.7399 1.57717,-0.7858 9.7258,1.3097 18.13725,5.239 8.41149,3.6672 18.92586,8.1203 23.1316,10.2159 17.87439,7.5965 40.48025,17.8124 55.72607,25.147 9.20005,4.1912 17.34871,7.5965 18.40009,7.5965 7.36008,0.262 8.67441,4.4531 4.7315,13.8833 -4.4686,10.4779 -7.88575,11.7877 -16.0344,5.7629 -2.62858,-2.0956 -6.30862,-3.9293 -8.14863,-3.9293 -2.89144,0 -25.76017,-9.692 -47.31456,-20.1699 -4.46862,-2.0957 -9.46293,-3.1435 -11.04011,-2.3576 -3.1543,2.0956 -0.78857,6.2868 28.12592,48.7223 16.56012,24.0993 21.55443,33.7913 21.55443,40.6019 0,8.9063 -5.52006,17.0267 -11.30294,17.0267 -1.84,-0.2619 -19.71442,-7.8584 -39.95455,-17.2886 z"
       id="path259"
       style="fill:#330080;stroke-width:0.999998" />
    <path
       d="m 1940.459,7388.1579 c -9.7258,-17.5505 -20.2401,-36.4108 -23.3945,-41.6497 -5.52,-9.4302 -5.52,-9.954 -0.7886,-15.1931 7.3601,-8.1202 12.6173,-6.2867 19.7145,7.3346 13.9315,26.4568 27.3373,48.1985 30.4916,49.5082 3.1543,1.0478 19.4516,-6.5487 28.1258,-13.3593 5.5202,-4.4531 4.4688,-10.4779 -4.7314,-25.1471 -2.8913,-4.9769 -8.9371,-15.7168 -12.88,-23.3133 l -7.3601,-14.4071 5.5201,-4.4532 c 3.1543,-2.6194 7.36,-4.1911 9.4629,-3.4053 3.1543,1.3098 18.9259,28.0284 27.0744,46.1029 3.6801,8.6443 12.6173,9.6921 24.183,2.8814 12.0915,-7.0726 11.5659,-12.0496 -5.52,-41.9116 -8.4114,-14.9312 -15.5086,-28.2905 -15.5086,-29.3383 0,-4.1912 10.5143,-11.2638 14.1943,-9.954 2.1029,0.7859 7.0973,7.3346 10.7772,14.1452 3.68,6.8106 9.7258,17.8125 13.143,23.8373 3.4171,6.2867 10.5143,18.8603 15.5086,28.0284 l 9.2001,16.2408 -5.7829,5.239 c -7.36,6.5487 -105.6693,61.0338 -110.1379,61.0338 -1.84,0 -11.3029,-14.4071 -21.2915,-32.2196 z"
       id="path261"
       style="fill:#330080;stroke-width:0.999998" />
    <path
       d="m 435.06648,7328.9577 c -33.12025,-10.7399 -60.45757,-41.3878 -60.45757,-67.3207 0,-24.0992 19.18869,-54.4851 40.74313,-64.1773 29.70307,-13.6213 72.02334,3.6674 93.05205,37.9825 8.14861,13.0974 8.67435,40.078 1.31429,53.9613 -9.46294,17.2885 -17.08586,26.1949 -28.65163,33.0055 -12.35436,7.0726 -34.43451,10.4779 -46.00027,6.5487 z m 32.33163,-24.8851 c 4.73144,-1.8337 12.35436,-7.8585 17.0858,-13.0974 14.72008,-16.7646 10.51434,-40.3401 -10.25149,-57.1047 -24.18302,-19.6461 -41.00598,-22.7895 -58.35463,-11.2637 -9.98865,6.8106 -20.24015,23.3133 -20.24015,32.2196 0,21.4797 33.38305,51.3419 58.61751,52.6515 2.62863,0.262 8.41151,-1.3096 13.14296,-3.4053 z"
       id="path263"
       style="fill:#330080;stroke-width:0.999998" />
    <path
       d="m 1866.8585,7279.9734 c -3.9428,-3.6673 -7.0971,-8.1204 -7.0971,-9.9541 0,-1.8336 8.1485,-9.954 18.1372,-17.5505 22.343,-17.2885 24.183,-22.0036 12.8801,-32.2196 l -8.1487,-7.5965 -29.1772,2.0956 c -16.0344,1.3097 -31.806,2.0956 -34.9603,2.0956 -5.7829,-0.262 -18.9258,-12.5735 -19.1887,-18.3364 0,-3.4053 25.2345,-6.8106 52.5718,-7.0726 15.5087,-0.2619 17.0859,-0.7858 16.2973,-5.5009 -4.4687,-29.862 -4.7315,-29.3381 7.8857,-41.9116 11.0401,-11.0019 12.8801,-11.7877 25.4973,-11.7877 12.8801,0 14.1944,0.5239 28.6517,15.1929 8.4113,8.1205 22.08,23.0515 30.2287,32.7435 11.5658,13.8833 14.4573,18.8603 12.6172,22.2656 -1.3143,2.3576 -11.04,11.5257 -21.5545,20.1701 -10.2515,8.6443 -21.5544,18.0744 -24.7086,20.9559 -18.663,16.2407 -29.7031,25.4089 -50.2062,40.8638 -1.577,1.3098 -5.5199,-0.5239 -9.7257,-4.4531 z m 64.1377,-72.0358 c 5.7828,-4.4531 10.2513,-10.2159 10.2513,-13.3592 0,-6.2868 -22.6058,-33.2675 -30.2287,-36.149 -6.8344,-2.3574 -19.1887,1.8337 -22.3431,7.8585 -1.577,2.6195 -2.6285,7.5965 -2.6285,11.0018 0.263,7.3346 24.7088,38.7683 30.4917,38.7683 2.3657,0 8.9371,-3.6672 14.4573,-8.1204 z"
       id="path265"
       style="fill:#330080;stroke-width:0.999998" />
    <path
       d="m 560.97584,7188.0297 c -22.60584,-23.5755 -69.13186,-76.227 -70.44614,-79.6323 -0.78859,-2.6195 22.86868,-25.9329 26.54874,-25.9329 1.05139,0 17.34866,9.9541 36.01163,22.2656 33.38308,21.7417 42.32028,25.6709 42.32028,19.1222 0,-3.1433 -14.45724,-32.4816 -29.70307,-60.7719 -3.94285,-7.0726 -7.09717,-14.4072 -7.09717,-16.2408 0,-4.7151 21.55441,-24.6231 26.8116,-24.6231 2.36572,0 5.52004,1.5716 6.57147,3.6672 2.10289,3.6673 32.85734,37.7206 64.66327,71.5118 9.72579,10.2161 17.61151,20.1701 17.61151,21.7418 0,1.5717 -3.15427,5.7628 -7.09718,9.43 l -7.36001,6.8107 -10.51438,-11.5257 c -5.78288,-6.5487 -19.71443,-21.7416 -31.01736,-34.3151 -11.30292,-12.5736 -21.81724,-22.7896 -23.13153,-22.7896 -4.99434,0 -2.10288,9.6922 8.93715,28.8143 6.04578,10.7399 15.77157,28.8143 21.55446,39.8161 l 10.51438,20.1701 -6.30863,6.5486 c -3.68001,3.6673 -8.67435,6.8107 -11.30292,6.8107 -2.62863,0 -21.29156,-11.2638 -41.53174,-24.885 -20.24012,-13.6214 -38.11451,-24.8851 -39.42879,-24.8851 -5.78288,0 -2.10287,7.3345 9.98863,19.6461 23.92013,24.8851 45.21168,50.5559 45.21168,54.4852 0,3.1433 -10.25148,12.3115 -13.93148,12.3115 -0.52576,0 -8.41151,-7.8584 -17.8744,-17.5504 z"
       id="path267"
       style="fill:#330080;stroke-width:0.999998" />
    <path
       d="m 1731.749,7143.7604 c -16.56,-8.1204 -33.9087,-26.7187 -37.8516,-41.1258 -6.0458,-23.0515 14.1944,-48.9844 38.6402,-48.9844 6.3086,0 12.0916,1.3098 12.8802,2.6195 0.7885,1.5717 3.4171,2.6195 5.5199,2.6195 1.8402,0 11.3031,3.6673 20.2402,7.8584 17.8744,8.3823 27.863,9.6922 32.8573,4.7152 6.0458,-6.0249 3.4172,-15.455 -7.0971,-25.9329 -7.8858,-8.1205 -12.0915,-10.2161 -19.4516,-10.2161 -5.2572,0 -10.2515,1.0478 -11.0401,2.6196 -2.1028,3.6672 -16.0343,-3.9292 -19.7143,-10.4779 -2.1029,-4.1913 -1.5772,-5.7629 3.68,-9.1683 16.2972,-10.7399 40.4802,-6.2867 60.1946,11.5257 24.4459,22.0037 24.9716,52.6516 0.7886,64.9632 -12.3544,6.5487 -27.3373,4.977 -52.3089,-5.5009 -26.8116,-11.0019 -31.5431,-11.5257 -37.0631,-3.6673 -9.4629,13.3593 -1.0514,30.9099 18.9259,39.8161 9.4629,4.4531 11.04,4.4531 18.4,0.524 11.0401,-5.7629 14.4573,-5.239 21.5545,2.3574 4.9943,5.5009 5.5201,7.0726 2.6286,10.478 -4.9943,5.7628 -19.9773,11.7877 -29.966,11.7877 -4.4686,-0.262 -14.1943,-3.1435 -21.8173,-6.8107 z"
       id="path269"
       style="fill:#330080;stroke-width:0.999998" />
    <path
       d="m 717.90257,7085.8698 c -0.52576,-2.6194 -4.20576,-26.9806 -7.88577,-54.4852 -3.68001,-27.2425 -7.88575,-56.3188 -9.46289,-63.9153 -2.36577,-13.0973 -2.10287,-14.931 2.89142,-20.17 10.25148,-11.0018 20.76581,-10.4779 34.69736,1.5718 20.76586,17.5505 45.73743,37.9823 66.24045,53.4373 13.14295,9.954 24.70872,18.8603 25.76015,19.9081 3.94291,3.4053 -1.31428,10.216 -10.25148,13.0973 -8.4115,2.8815 -9.72579,2.3576 -19.97728,-6.2866 -6.04578,-5.2391 -12.0915,-9.4302 -13.66863,-9.4302 -1.57719,0.2619 -12.88011,6.2867 -25.23448,13.8833 -23.92018,14.9309 -25.23446,17.5505 -20.24017,36.6727 1.57719,5.7628 0.52575,8.3822 -4.46855,13.6213 -7.62291,7.5964 -16.29726,8.6443 -18.40013,2.0955 z m 34.17166,-69.4161 c 16.56011,-8.1205 15.50868,-14.1453 -4.46865,-30.648 -16.29722,-13.6213 -19.45153,-15.193 -22.0801,-11.0019 -1.84003,3.4054 3.94285,40.0781 7.36002,44.2693 3.4172,4.453 6.04578,3.9292 19.18873,-2.6194 z"
       id="path271"
       style="fill:#330080;stroke-width:0.999998" />
    <path
       d="m 1614.2512,7065.4379 -7.0973,-6.5487 5.5201,-9.9541 c 22.343,-39.2921 62.5605,-101.3738 66.2405,-102.1597 2.6285,-0.5239 7.6229,2.0957 11.5657,6.0248 6.0458,6.0248 6.5715,7.3346 2.8915,11.2638 -3.4171,3.9292 -37.8516,61.0339 -50.2061,83.0376 -14.9829,27.2426 -17.6115,28.8142 -28.9144,18.3363 z"
       id="path273"
       style="fill:#330080;stroke-width:0.999998" />
    <path
       d="m 1509.6334,7014.8819 c -7.3601,-4.4531 -10.2516,-16.7646 -4.9944,-19.908 1.0515,-0.7859 4.2058,-7.0727 6.8343,-13.8833 5.2572,-14.931 21.5545,-54.7472 25.4974,-62.6056 5.2572,-11.0018 1.84,-17.2886 -13.143,-22.7895 -15.5086,-5.7628 -17.8743,-8.9061 -15.2458,-19.1222 2.1029,-8.1203 -1.84,-9.1681 55.4632,14.1452 45.2118,18.3364 50.4689,22.0036 43.3718,30.648 -4.4686,5.2389 -11.0401,4.9769 -23.3944,-1.5717 -5.7829,-2.8814 -12.8801,-4.7151 -15.5087,-3.9292 -2.8915,1.0478 -7.8858,9.692 -13.4059,23.3133 -4.9943,11.7877 -10.7772,26.1948 -13.4058,31.9577 -2.6286,5.7629 -7.0972,17.5505 -10.2514,26.1948 -5.7829,15.7169 -9.9887,22.5275 -13.143,22.0036 -0.7886,0 -4.7314,-2.0956 -8.6743,-4.4531 z"
       id="path275"
       style="fill:#330080;stroke-width:0.999998" />
    <path
       d="m 874.82929,6996.8075 c -3.15431,-7.0726 -8.1486,-19.1222 -11.30292,-26.9807 -3.15432,-7.8584 -11.56582,-28.5522 -18.663,-45.8408 -7.09716,-17.2887 -12.88004,-32.7436 -12.88004,-34.3153 0,-3.6672 11.56576,-11.5257 17.0858,-11.5257 2.10288,0 6.04573,4.4531 8.41151,9.954 2.36566,5.2391 5.78288,13.3594 7.62285,17.5506 1.84004,4.4531 7.09723,17.2885 11.56583,28.8143 4.46855,11.5257 9.20005,23.3133 10.25149,26.1948 15.77151,36.9347 16.29726,41.1258 6.83431,45.317 -11.04007,4.9769 -13.14294,3.9292 -18.92583,-9.1682 z"
       id="path277"
       style="fill:#330080;stroke-width:0.999998" />
    <path
       d="m 980.49855,6972.4464 c -11.82861,-3.6674 -29.17732,-22.7896 -34.17161,-37.9825 -13.14301,-39.5542 -4.7315,-76.7509 19.45152,-87.2287 8.93721,-3.6673 17.6115,-6.2868 50.73184,-14.6692 21.0286,-5.2389 20.24,-6.2868 35.4858,58.6764 5.2572,23.0514 7.8858,33.5293 11.04,45.8409 1.5772,5.7628 2.8916,13.6213 2.8916,17.5506 0,6.2868 -1.3144,7.3345 -9.7259,8.9062 -5.52,0.7858 -14.9829,3.1434 -21.2915,5.2389 -14.7201,4.7152 -44.42311,6.8107 -54.41175,3.6674 z m 40.74315,-21.4798 c 9.2,-2.0955 14.1942,-4.7151 15.5086,-8.1205 1.0514,-2.6193 -0.2628,-13.3592 -2.8914,-23.5753 -2.8914,-10.4779 -6.0457,-23.5753 -7.3601,-29.3381 -8.4114,-37.7205 -8.6744,-37.9825 -26.81157,-31.6958 -21.29156,7.0727 -25.49732,9.6922 -31.01729,18.8603 -6.30864,9.9541 -6.57154,17.8125 -1.05145,37.1966 10.25148,37.4586 20.50297,44.2693 53.62321,36.6728 z"
       id="path279"
       style="fill:#330080;stroke-width:0.999998" />
    <path
       d="m 1357.9638,6969.5649 c -4.4686,-1.8337 -5.7829,-3.9292 -4.7314,-8.3823 0.7885,-3.1434 3.4171,-15.193 5.7828,-26.7187 l 4.4686,-20.9559 -8.4114,-22.2656 c -4.7315,-12.3115 -10.7773,-28.0284 -13.6687,-35.3629 -6.3086,-15.455 -8.9372,-30.124 -5.5201,-30.124 1.5772,0 6.5715,1.3096 11.0401,2.8813 9.4629,3.4053 13.4058,10.7399 22.8688,40.8639 5.7828,18.8602 11.3029,21.2178 21.2915,9.4302 3.4171,-3.9292 12.0916,-13.3594 19.1888,-20.9559 12.6171,-13.6214 13.4057,-13.8832 24.1829,-12.3116 6.3086,1.0478 12.3544,2.6196 13.6687,3.9293 2.1028,1.8336 -30.4917,37.4586 -52.8347,58.1524 -6.3086,5.5009 -12.3543,23.5753 -15.5086,45.0551 -2.6286,19.3842 -6.8344,22.7895 -21.8173,16.7647 z"
       id="path281"
       style="fill:#330080;stroke-width:0.999998" />
    <path
       d="m 1172.3854,6912.4602 c -33.6459,-20.1699 -17.8743,-70.9879 22.0802,-70.9879 12.3543,0 29.9659,14.1452 34.4345,27.5045 5.5201,16.5028 -2.8914,36.6728 -18.4001,44.5312 -10.5143,5.5009 -28.6517,4.977 -38.1146,-1.0478 z"
       id="path283"
       style="fill:#330080;stroke-width:0.999998" />
  </g>
</svg>
